<svg width="47" height="82" viewBox="0 0 47 82" fill="none" xmlns="http://www.w3.org/2000/svg">
<path d="M0 12.176V64.6166H46.7719V12.176H0ZM5.88281 17.951C6.28667 17.951 6.68657 18.0299 7.05969 18.1831C7.4328 18.3364 7.77181 18.5611 8.05737 18.8443C8.34292 19.1275 8.56941 19.4638 8.72391 19.8338C8.87841 20.2039 8.95789 20.6005 8.95781 21.001C8.95755 21.8096 8.63346 22.585 8.05681 23.1567C7.48016 23.7284 6.69817 24.0495 5.88281 24.0495C5.06745 24.0495 4.28546 23.7284 3.70881 23.1567C3.13216 22.585 2.80807 21.8096 2.80781 21.001C2.80773 20.6005 2.88721 20.2039 3.04171 19.8338C3.19621 19.4638 3.4227 19.1275 3.70825 18.8443C3.9938 18.5611 4.33282 18.3364 4.70593 18.1831C5.07905 18.0299 5.47895 17.951 5.88281 17.951ZM40.8906 17.951C41.706 17.9514 42.4878 18.2729 43.0642 18.8449C43.6405 19.4168 43.9642 20.1924 43.9641 21.001C43.9638 21.8094 43.6399 22.5845 43.0636 23.1562C42.4873 23.7278 41.7057 24.0491 40.8906 24.0495C40.0753 24.0495 39.2933 23.7284 38.7166 23.1567C38.14 22.585 37.8159 21.8096 37.8156 21.001C37.8155 20.6005 37.895 20.2039 38.0495 19.8338C38.204 19.4638 38.4305 19.1275 38.7161 18.8443C39.0016 18.5611 39.3406 18.3364 39.7137 18.1831C40.0868 18.0299 40.4868 17.951 40.8906 17.951ZM12.3047 48.7167C12.6946 48.7168 13.0685 48.8717 13.3442 49.1474C13.6199 49.4232 13.7748 49.7971 13.775 50.187C13.7748 50.5769 13.6199 50.9508 13.3442 51.2265C13.0685 51.5022 12.6946 51.6572 12.3047 51.6573C12.1115 51.6574 11.9201 51.6195 11.7416 51.5457C11.563 51.4719 11.4008 51.3636 11.2641 51.2271C11.1274 51.0905 11.019 50.9284 10.945 50.7499C10.871 50.5715 10.8328 50.3802 10.8328 50.187C10.8328 49.9938 10.871 49.8025 10.945 49.624C11.019 49.4456 11.1274 49.2834 11.2641 49.1469C11.4008 49.0103 11.563 48.9021 11.7416 48.8283C11.9201 48.7544 12.1115 48.7165 12.3047 48.7167ZM19.4797 48.7167C19.8696 48.7168 20.2435 48.8717 20.5192 49.1474C20.7949 49.4232 20.9498 49.7971 20.95 50.187C20.9498 50.5769 20.7949 50.9508 20.5192 51.2265C20.2435 51.5022 19.8696 51.6572 19.4797 51.6573C19.2865 51.6574 19.0951 51.6195 18.9166 51.5457C18.738 51.4719 18.5758 51.3636 18.4391 51.2271C18.3024 51.0905 18.194 50.9284 18.12 50.7499C18.046 50.5715 18.0078 50.3802 18.0078 50.187C18.0078 49.9938 18.046 49.8025 18.12 49.624C18.194 49.4456 18.3024 49.2834 18.4391 49.1469C18.5758 49.0103 18.738 48.9021 18.9166 48.8283C19.0951 48.7544 19.2865 48.7165 19.4797 48.7167ZM26.6546 48.7167C27.0446 48.7168 27.4185 48.8717 27.6942 49.1474C27.9699 49.4232 28.1248 49.7971 28.125 50.187C28.1248 50.5769 27.9699 50.9508 27.6942 51.2265C27.4185 51.5022 27.0446 51.6572 26.6546 51.6573C26.4615 51.6574 26.2701 51.6195 26.0916 51.5457C25.913 51.4719 25.7508 51.3636 25.6141 51.2271C25.4774 51.0905 25.369 50.9284 25.295 50.7499C25.221 50.5715 25.1828 50.3802 25.1828 50.187C25.1828 49.9938 25.221 49.8025 25.295 49.624C25.369 49.4456 25.4774 49.2834 25.6141 49.1469C25.7508 49.0103 25.913 48.9021 26.0916 48.8283C26.2701 48.7544 26.4615 48.7165 26.6546 48.7167ZM33.8281 48.7167C34.0213 48.7165 34.2126 48.7544 34.3912 48.8283C34.5697 48.9021 34.7319 49.0103 34.8686 49.1469C35.0053 49.2834 35.1138 49.4456 35.1878 49.624C35.2618 49.8025 35.2999 49.9938 35.3 50.187C35.2999 50.3802 35.2618 50.5715 35.1878 50.7499C35.1138 50.9284 35.0053 51.0905 34.8686 51.2271C34.7319 51.3636 34.5697 51.4719 34.3912 51.5457C34.2126 51.6195 34.0213 51.6574 33.8281 51.6573C33.4382 51.6572 33.0643 51.5022 32.7886 51.2265C32.5129 50.9508 32.3579 50.5769 32.3578 50.187C32.3579 49.7971 32.5129 49.4232 32.7886 49.1474C33.0643 48.8717 33.4382 48.7168 33.8281 48.7167Z" fill="#2D2D2D"/>
<path d="M5.88329 24.4675C7.79807 24.4675 9.35031 22.9152 9.35031 21.0005C9.35031 19.0857 7.79807 17.5334 5.88329 17.5334C3.9685 17.5334 2.41626 19.0857 2.41626 21.0005C2.41626 22.9152 3.9685 24.4675 5.88329 24.4675Z" stroke="#8C8C8C" stroke-width="0.870922"/>
<path d="M4.16492 41.3224H2.98523V40.9591H5.8407V41.6544C5.8407 42.0008 5.77364 42.2566 5.63953 42.422C5.50541 42.5874 5.30229 42.67 5.03015 42.67C4.91687 42.67 4.81791 42.6538 4.73328 42.6212C4.64864 42.59 4.57572 42.5476 4.51453 42.4943C4.45463 42.4422 4.4045 42.3823 4.36414 42.3146C4.32377 42.2469 4.29057 42.1772 4.26453 42.1056L2.98523 42.8829V42.4552L4.16492 41.7697V41.3224ZM4.47351 41.3224V41.6427C4.47351 41.7599 4.48458 41.8595 4.50671 41.9415C4.53015 42.0236 4.56401 42.0906 4.60828 42.1427C4.65385 42.1961 4.70984 42.2345 4.77625 42.2579C4.84395 42.2827 4.92273 42.295 5.01257 42.295C5.10632 42.295 5.18575 42.2814 5.25085 42.254C5.31596 42.228 5.36934 42.1876 5.41101 42.1329C5.45268 42.0795 5.48263 42.0112 5.50085 41.9279C5.52039 41.8458 5.53015 41.7482 5.53015 41.6349V41.3224H4.47351ZM2.98523 44.3185V43.9747H4.76843C4.82442 43.9747 4.88432 43.9747 4.94812 43.9747C5.01192 43.976 5.07507 43.9773 5.13757 43.9786C5.20138 43.9812 5.26192 43.9832 5.31921 43.9845C5.37781 43.9871 5.42924 43.9891 5.47351 43.9904C5.45007 43.9682 5.42989 43.9487 5.41296 43.9318C5.39604 43.9148 5.37976 43.8973 5.36414 43.879C5.34851 43.8621 5.33158 43.8439 5.31335 43.8243C5.29643 43.8048 5.27625 43.7814 5.25281 43.754L5.01648 43.465L5.25671 43.2775L5.8407 44.0255V44.3185H2.98523Z" fill="white"/>
<path d="M40.8902 24.4675C42.805 24.4675 44.3573 22.9152 44.3573 21.0005C44.3573 19.0857 42.805 17.5334 40.8902 17.5334C38.9755 17.5334 37.4232 19.0857 37.4232 21.0005C37.4232 22.9152 38.9755 24.4675 40.8902 24.4675Z" stroke="#8C8C8C" stroke-width="0.870922"/>
<path d="M26.7723 56.6194H12.7723V63.6551H26.7723V56.6194Z" stroke="white" stroke-width="0.8"/>
<path d="M33.8914 56.6165H27.0023V63.6485H33.8914V56.6165Z" stroke="white" stroke-width="0.803668"/>
<path d="M1.51025 45.609V57.4294H7.30048V45.609H1.51025Z" stroke="white" stroke-width="0.8"/>
<path d="M37.189 45.9844H8.75024V53.7687H37.189V45.9844Z" stroke="white" stroke-width="0.8"/>
<path d="M12.3042 52.3288C13.4869 52.3288 14.4456 51.3701 14.4456 50.1875C14.4456 49.0049 13.4869 48.0461 12.3042 48.0461C11.1216 48.0461 10.1629 49.0049 10.1629 50.1875C10.1629 51.3701 11.1216 52.3288 12.3042 52.3288Z" stroke="#8C8C8C" stroke-width="1.34484"/>
<path d="M19.4792 52.3288C20.6619 52.3288 21.6206 51.3701 21.6206 50.1875C21.6206 49.0049 20.6619 48.0461 19.4792 48.0461C18.2966 48.0461 17.3379 49.0049 17.3379 50.1875C17.3379 51.3701 18.2966 52.3288 19.4792 52.3288Z" stroke="#8C8C8C" stroke-width="1.34484"/>
<path d="M26.6543 52.3288C27.8369 52.3288 28.7956 51.3701 28.7956 50.1875C28.7956 49.0049 27.8369 48.0461 26.6543 48.0461C25.4717 48.0461 24.5129 49.0049 24.5129 50.1875C24.5129 51.3701 25.4717 52.3288 26.6543 52.3288Z" stroke="#8C8C8C" stroke-width="1.34484"/>
<path d="M31.1484 47.5072V52.8666H36.5094V47.5072H31.1484ZM33.8297 48.7166C34.2196 48.7167 34.5935 48.8716 34.8692 49.1474C35.1449 49.4231 35.2999 49.797 35.3 50.1869C35.2999 50.5768 35.1449 50.9507 34.8692 51.2264C34.5935 51.5021 34.2196 51.6571 33.8297 51.6572C33.6365 51.6573 33.4452 51.6194 33.2666 51.5456C33.0881 51.4718 32.9258 51.3635 32.7891 51.227C32.6525 51.0904 32.544 50.9283 32.47 50.7498C32.396 50.5714 32.3579 50.3801 32.3578 50.1869C32.3579 49.9937 32.396 49.8024 32.47 49.6239C32.544 49.4455 32.6525 49.2833 32.7891 49.1468C32.9258 49.0103 33.0881 48.902 33.2666 48.8282C33.4452 48.7543 33.6365 48.7164 33.8297 48.7166Z" fill="#8C8C8C"/>
<path d="M39.7748 0.108398H6.99825C6.24714 0.108398 5.63824 0.717307 5.63824 1.46841V44.7279C5.63824 45.479 6.24714 46.0879 6.99825 46.0879H39.7748C40.5259 46.0879 41.1348 45.479 41.1348 44.7279V1.46841C41.1348 0.717307 40.5259 0.108398 39.7748 0.108398Z" fill="#0F9CD8"/>
<path d="M6.99725 0.108429C6.24381 0.108429 5.63788 0.71436 5.63788 1.4678V14.0037H11.5973V17.6365H5.63788V21.2756H11.5973V24.9084H5.63788V35.8803H11.5973V39.5131H5.63788V44.7272C5.63788 45.4806 6.24381 46.0881 6.99725 46.0881H39.7738C40.5273 46.0881 41.1348 45.4806 41.1348 44.7272V1.46777C41.1348 0.714333 40.5273 0.108398 39.7738 0.108398H32.1176V3.66309H28.4332V0.108398H25.1895V3.66309H21.5051V0.108398H18.2738V3.66309H14.5895V0.108398L6.99725 0.108429ZM14.5894 6.91937H18.2738V10.5522H14.5894V6.91937ZM21.5051 6.91937H25.1895V10.5522H21.5051V6.91937ZM28.4332 6.91937H32.1176V10.5522H28.4332V6.91937ZM14.5895 14.0038H18.2738V17.6366H14.5895V14.0038ZM21.5051 14.0038H25.1895V17.6366H21.5051V14.0038ZM28.4332 14.0038H32.1176V17.6366H28.4332V14.0038ZM35.0582 14.0038H41.1301V17.6366H35.0582V14.0038ZM14.5895 21.2756H18.2739V24.9084H14.5895V21.2756ZM21.5051 21.2756H25.1895V24.9084H21.5051V21.2756ZM28.4333 21.2756H32.1176V24.9084H28.4333V21.2756ZM35.0583 21.2756H41.1301V24.9084H35.0583V21.2756ZM14.5896 28.3647H18.2739V31.9975H14.5896V28.3647ZM21.5052 28.3647H25.1896V31.9975H21.5052V28.3647ZM28.4333 28.3647H32.1177V31.9975H28.4333V28.3647ZM14.5896 35.8803H18.274V39.5131H14.5896V35.8803ZM21.5052 35.8803H25.1896V39.5131H21.5052V35.8803ZM28.4333 35.8803H32.1177V39.5131H28.4333V35.8803ZM35.0583 35.8803H41.1302V39.5131H35.0583V35.8803Z" fill="#07D1F1"/>
<path d="M12.3043 51.6582C13.1166 51.6582 13.7751 50.9998 13.7751 50.1875C13.7751 49.3752 13.1166 48.7167 12.3043 48.7167C11.492 48.7167 10.8335 49.3752 10.8335 50.1875C10.8335 50.9998 11.492 51.6582 12.3043 51.6582Z" fill="#DCDCDC"/>
<path d="M13.3889 46.0795H11.2632V49.4099H13.3889V46.0795Z" fill="#8C8C8C"/>
<path d="M13.3889 49.3574H11.2632V50.3006H13.3889V49.3574Z" fill="#C1C1C1"/>
<path d="M19.4793 51.6582C20.2916 51.6582 20.95 50.9998 20.95 50.1875C20.95 49.3752 20.2916 48.7167 19.4793 48.7167C18.667 48.7167 18.0085 49.3752 18.0085 50.1875C18.0085 50.9998 18.667 51.6582 19.4793 51.6582Z" fill="#DCDCDC"/>
<path d="M20.5873 46.0791H18.4617V49.4095H20.5873V46.0791Z" fill="#8C8C8C"/>
<path d="M20.5873 49.3571H18.4617V50.3003H20.5873V49.3571Z" fill="#C1C1C1"/>
<path d="M26.6543 51.6582C27.4665 51.6582 28.125 50.9998 28.125 50.1875C28.125 49.3752 27.4665 48.7167 26.6543 48.7167C25.842 48.7167 25.1835 49.3752 25.1835 50.1875C25.1835 50.9998 25.842 51.6582 26.6543 51.6582Z" fill="#DCDCDC"/>
<path d="M27.7846 46.0796H25.6589V49.41H27.7846V46.0796Z" fill="#8C8C8C"/>
<path d="M27.7846 49.3575H25.6589V50.3008H27.7846V49.3575Z" fill="#C1C1C1"/>
<path d="M33.8292 51.6582C34.6415 51.6582 35.3 50.9998 35.3 50.1875C35.3 49.3752 34.6415 48.7167 33.8292 48.7167C33.0169 48.7167 32.3585 49.3752 32.3585 50.1875C32.3585 50.9998 33.0169 51.6582 33.8292 51.6582Z" fill="#DCDCDC"/>
<path d="M34.9819 46.079H32.8563V49.4094H34.9819V46.079Z" fill="#8C8C8C"/>
<path d="M34.9819 49.3579H32.8563V50.3011H34.9819V49.3579Z" fill="#C1C1C1"/>
<path d="M6.74213 61.9739C6.74213 62.1633 6.70795 62.3333 6.63959 62.4836C6.57318 62.6321 6.47748 62.7581 6.35248 62.8616C6.22748 62.9651 6.07513 63.0442 5.89545 63.0989C5.71576 63.1516 5.51361 63.178 5.289 63.178C5.0722 63.178 4.86908 63.1604 4.67963 63.1252C4.49213 63.092 4.3349 63.0422 4.20795 62.9758V62.4543C4.27435 62.4856 4.34955 62.5168 4.43353 62.5481C4.51947 62.5774 4.60931 62.6038 4.70306 62.6272C4.79681 62.6506 4.89349 62.6702 4.9931 62.6858C5.09271 62.6995 5.19135 62.7063 5.289 62.7063C5.6015 62.7063 5.83197 62.6477 5.98041 62.5305C6.1308 62.4133 6.20599 62.2454 6.20599 62.0266C6.20599 61.9211 6.19135 61.8293 6.16205 61.7512C6.1347 61.6731 6.0849 61.6018 6.01263 61.5374C5.94232 61.4709 5.8476 61.4075 5.72845 61.3469C5.60931 61.2844 5.45892 61.217 5.27728 61.1448C5.10345 61.0764 4.95209 61.0022 4.82318 60.9221C4.69623 60.8401 4.59076 60.7483 4.50677 60.6467C4.42474 60.5452 4.36322 60.4299 4.3222 60.301C4.28314 60.1721 4.26361 60.0256 4.26361 59.8616C4.26361 59.6897 4.29486 59.5364 4.35736 59.4016C4.41986 59.2668 4.50775 59.1536 4.62103 59.0618C4.73431 58.968 4.86908 58.8967 5.02533 58.8479C5.18353 58.7991 5.35736 58.7747 5.54681 58.7747C5.77924 58.7747 5.98822 58.7971 6.17377 58.842C6.35931 58.885 6.52435 58.9407 6.66888 59.009L6.4726 59.4661C6.34564 59.4094 6.20111 59.3606 6.039 59.3196C5.87885 59.2766 5.71283 59.2551 5.54095 59.2551C5.30267 59.2551 5.1181 59.3108 4.98724 59.4221C4.85638 59.5315 4.79095 59.6799 4.79095 59.8674C4.79095 59.9788 4.8056 60.0754 4.8349 60.1575C4.8642 60.2375 4.91302 60.3108 4.98138 60.3772C5.04974 60.4417 5.13959 60.5032 5.25092 60.5618C5.3642 60.6184 5.50287 60.679 5.66693 60.7434C5.84467 60.8137 5.99994 60.886 6.13275 60.9602C6.26752 61.0344 6.37982 61.1184 6.46967 61.2122C6.55951 61.3059 6.62689 61.4143 6.67181 61.5374C6.71869 61.6604 6.74213 61.8059 6.74213 61.9739Z" fill="white"/>
<path class="hoverable" d="M16.2393 61.6648C17.2945 61.6648 18.15 60.8093 18.15 59.7541C18.15 58.6988 17.2945 57.8434 16.2393 57.8434C15.184 57.8434 14.3286 58.6988 14.3286 59.7541C14.3286 60.8093 15.184 61.6648 16.2393 61.6648Z" stroke="#8C8C8C" stroke-width="0.8"/>
<path class="hoverable" d="M23.0993 61.6648C24.1545 61.6648 25.01 60.8093 25.01 59.7541C25.01 58.6988 24.1545 57.8434 23.0993 57.8434C22.044 57.8434 21.1885 58.6988 21.1885 59.7541C21.1885 60.8093 22.044 61.6648 23.0993 61.6648Z" stroke="#8C8C8C" stroke-width="0.8"/>
<path class="hoverable" d="M32.0252 59.8072C32.0252 60.3139 31.8239 60.7999 31.4656 61.1582C31.1073 61.5166 30.6213 61.7179 30.1145 61.7179C29.6078 61.7179 29.1218 61.5166 28.7634 61.1582C28.4051 60.7999 28.2038 60.3139 28.2038 59.8072C28.2038 59.5562 28.2532 59.3078 28.3492 59.076C28.4453 58.8441 28.586 58.6335 28.7634 58.4561C28.9409 58.2787 29.1515 58.1379 29.3833 58.0419C29.6151 57.9459 29.8636 57.8965 30.1145 57.8965C30.3655 57.8965 30.6139 57.9459 30.8457 58.0419C31.0775 58.1379 31.2882 58.2787 31.4656 58.4561C31.643 58.6335 31.7838 58.8441 31.8798 59.076C31.9758 59.3078 32.0252 59.5562 32.0252 59.8072ZM28.0431 57.6643H32.1859V61.8429H28.0431V57.6643Z" stroke="#8C8C8C" stroke-width="1.04"/>
<path d="M19.8127 61.6525V57.6764L18.2601 56.1487H14.218L12.6642 57.6764V61.6525L14.218 63.1772H18.2601L19.8127 61.6525Z" fill="#404040"/>
<path d="M19.8122 61.6525L21.366 63.1772H25.4081L26.9607 61.6525V57.6764L25.4081 56.1487H21.366L19.8122 57.6764V61.6525Z" fill="#404040"/>
<path d="M26.9612 61.6525L28.515 63.1772H32.5571L34.1097 61.6525V57.6764L32.5571 56.1487H28.515L26.9612 57.6764V61.6525Z" fill="#404040"/>
<path class="hoverable" id="vcc" d="M16.8437 59.7334H15.6362V81.3169H16.8437V59.7334Z" fill="#8C8C8C" stroke="#8C8C8C" stroke-width="0.952558"/>
<path class="hoverable" id="out" d="M23.9907 59.6425H22.7833V81.226H23.9907V59.6425Z" fill="#8C8C8C" stroke="#8C8C8C" stroke-width="0.952558"/>
<path class="hoverable" id="gnd" d="M31.1387 59.6425H29.9313V81.226H31.1387V59.6425Z" fill="#8C8C8C" stroke="#8C8C8C" stroke-width="0.952558"/>
<path d="M16.8874 59.6895H15.5909V59.818H16.8874V59.6895Z" fill="#1A1A1A" stroke="#C1C1C1" stroke-width="0.863571"/>
<path d="M16.9993 81.3855H15.4861V81.4473H16.9993V81.3855Z" fill="#1A1A1A" stroke="#C1C1C1" stroke-width="0.646862"/>
<path d="M24.0348 59.5984H22.7383V59.7269H24.0348V59.5984Z" fill="#1A1A1A" stroke="#C1C1C1" stroke-width="0.863571"/>
<path d="M24.1467 81.2944H22.6335V81.3562H24.1467V81.2944Z" fill="#1A1A1A" stroke="#C1C1C1" stroke-width="0.646862"/>
<path d="M31.1836 59.5984H29.8871V59.7269H31.1836V59.5984Z" fill="#1A1A1A" stroke="#C1C1C1" stroke-width="0.863571"/>
<path d="M31.2955 81.2944H29.7823V81.3562H31.2955V81.2944Z" fill="#1A1A1A" stroke="#C1C1C1" stroke-width="0.646862"/>
</svg>
